# xmcd
# 
# Track frame offsets:
#     150
#     21517
#     43015
#     67952
#     84855
#     114185
#     139582
#     158810
#     179655
#     200712
#     223345
#     251012
#     272767
#     290665
#     305315
# 
# Disc length: 4395
# 
# Revision: 0
# Processed by: cddbd v1.5.2PL0 Copyright (c) Steve Scherf et al.
# Submitted via: fre:ac v1.1beta1pre5
# 
DISCID=e011290f
DTITLE=George Michael - Ladies and Gentlemen - The Best of George Michael [CD 2)
DYEAR=1998
DGENRE=
TTITLE0=Outside
TTITLE1=As
TTITLE2=Fastlove
TTITLE3=Too Funky
TTITLE4=Freedom 90
TTITLE5=Star People 97
TTITLE6=Killer - Papa Was a Rollin' Stone
TTITLE7=I Want Your Sex (Part II)
TTITLE8=The Strangest Thing 97
TTITLE9=Fantasy
TTITLE10=Spinning the Wheel
TTITLE11=Waiting for that Day
TTITLE12=I Knew You Were Waiting (For Me)
TTITLE13=Faith
TTITLE14=Somebody to Love
EXTD=
EXTT0=
EXTT1=
EXTT2=
EXTT3=
EXTT4=
EXTT5=
EXTT6=
EXTT7=
EXTT8=
EXTT9=
EXTT10=
EXTT11=
EXTT12=
EXTT13=
EXTT14=
PLAYORDER=
